<svg width="770" height="964" viewBox="0 0 770 964" fill="none" xmlns="http://www.w3.org/2000/svg">
<g opacity="0.1">
<line x1="284" x2="284" y2="411" stroke="#003ACF" stroke-width="2" stroke-dasharray="5 5"/>
<rect x="12.8052" y="410.805" width="540.389" height="540.389" stroke="#003ACF" stroke-width="2"/>
<circle cx="283" cy="681" r="270.195" stroke="#003ACF" stroke-width="2"/>
<rect x="1" y="399" width="23.6109" height="23.6109" fill="white" stroke="#003ACF" stroke-width="2"/>
<rect x="541.389" y="399" width="23.6109" height="23.6109" fill="white" stroke="#003ACF" stroke-width="2"/>
<rect x="1" y="939.389" width="23.6109" height="23.6109" fill="white" stroke="#003ACF" stroke-width="2"/>
<rect x="541.389" y="939.389" width="23.6109" height="23.6109" fill="white" stroke="#003ACF" stroke-width="2"/>
<line x1="553" y1="680" x2="770" y2="680" stroke="#003ACF" stroke-width="2" stroke-dasharray="5 5"/>
<line x1="531" x2="531" y2="273" stroke="#003ACF" stroke-width="2" stroke-dasharray="5 5"/>
<rect x="348.597" y="272.597" width="362.805" height="362.805" stroke="#003ACF" stroke-width="2"/>
<path d="M375.036 543.107L530.405 274L685.774 543.107H375.036Z" stroke="#003ACF" stroke-width="2"/>
<rect x="341" y="265" width="15.1946" height="15.1946" fill="white" stroke="#003ACF" stroke-width="2"/>
<rect x="703.806" y="265" width="15.1946" height="15.1946" fill="white" stroke="#003ACF" stroke-width="2"/>
<rect x="341" y="627.805" width="15.1946" height="15.1946" fill="white" stroke="#003ACF" stroke-width="2"/>
<rect x="703.806" y="627.805" width="15.1946" height="15.1946" fill="white" stroke="#003ACF" stroke-width="2"/>
<line x1="711" y1="453" x2="770" y2="453" stroke="#003ACF" stroke-width="2" stroke-dasharray="5 5"/>
</g>
</svg>
