<?xml version="1.0" encoding="UTF-8"?>
<svg width="360px" height="360px" viewBox="0 0 360 360" version="1.1" xmlns="http://www.w3.org/2000/svg" xmlns:xlink="http://www.w3.org/1999/xlink">
    <title>logo</title>
    <g id="logo" stroke="none" stroke-width="1" fill="none" fill-rule="evenodd">
        <g transform="translate(-76.000000, -76.000000)">
            <g transform="translate(76.000000, 76.000000)">
                <circle id="Oval" fill="#13161F" cx="180" cy="180" r="180"></circle>
                <path d="M229.333333,137 C242.820127,137 253.778869,147.823874 253.996695,161.258758 L254,161.666667 L254,211 C254,251.869071 220.869071,285 180,285 C139.539619,285 106.663392,252.528377 106.009914,212.223725 L106,211 C106,197.376976 117.043643,186.333333 130.666667,186.333333 C144.15346,186.333333 155.112203,197.157208 155.330029,210.592092 L155.333333,211 C155.333333,224.623024 166.376976,235.666667 180,235.666667 C193.623024,235.666667 204.666667,224.623024 204.666667,211 L204.666667,161.666667 L204.669971,161.258758 C204.887797,147.823874 215.84654,137 229.333333,137 Z M229.5,75 C243.030976,75 254,85.9690236 254,99.5 C254,113.030976 243.030976,124 229.5,124 C215.969024,124 205,113.030976 205,99.5 C205,85.9690236 215.969024,75 229.5,75 Z" id="Combined-Shape" fill="#FFFFFF"></path>
            </g>
        </g>
    </g>
</svg>